<?xml version="1.0" encoding="utf-8"?>
<!-- Generator: $$$/GeneralStr/196=Adobe Illustrator 27.6.0, SVG Export Plug-In . SVG Version: 6.00 Build 0)  -->
<svg version="1.1" id="Capa_1" xmlns="http://www.w3.org/2000/svg" xmlns:xlink="http://www.w3.org/1999/xlink" x="0px" y="0px"
	 viewBox="0 0 726 276" style="enable-background:new 0 0 726 276;" xml:space="preserve">
<style type="text/css">
	.st0{fill:#FFFFFF;}
</style>
<g>
	<path class="st0" d="M199.7,209.7v56.6h-57.9v-56.6H1.5v-41.4L125.3,12.8h74.3v150h31.7v46.9H199.7z M141.8,162.8V59.3L138,58
		L55.2,164.5l2.1,3c27-3.4,54.1-4.6,75.2-4.6H141.8z"/>
	<path class="st0" d="M477.6,138.7c0,86.6-42.7,133.5-114.1,133.5c-71.4,0-113.6-46.9-113.6-133.5c0-86.2,45.2-131.8,113.6-131.8
		C433.3,6.9,477.6,52.5,477.6,138.7z M310.3,138.7c0,50.7,16.9,81.5,52.8,81.5c37.2,0,53.6-30.8,53.6-81.5c0-50.7-16.5-79-53.2-79
		C326.8,59.7,310.3,88,310.3,138.7z"/>
	<path class="st0" d="M694.3,209.7v56.6h-57.9v-56.6H496.2v-41.4L620,12.8h74.3v150H726v46.9H694.3z M636.4,162.8V59.3l-3.8-1.3
		l-82.8,106.5l2.1,3c27-3.4,54.1-4.6,75.2-4.6H636.4z"/>
</g>
</svg>
