<?xml version="1.0" standalone="no"?>
<!DOCTYPE svg PUBLIC "-//W3C//DTD SVG 20010904//EN"
 "http://www.w3.org/TR/2001/REC-SVG-20010904/DTD/svg10.dtd">
<svg version="1.0" xmlns="http://www.w3.org/2000/svg"
 width="70" height="70" viewBox="0 0 512.000000 512.000000"
 preserveAspectRatio="xMidYMid meet">

<g transform="translate(0.000000,512.000000) scale(0.100000,-0.100000)"
fill="#2E7AFB" stroke="none">
<path d="M1016 5110 c-41 -13 -84 -58 -96 -99 -5 -20 -10 -118 -10 -218 l0
-183 151 0 150 0 -3 204 c-3 188 -5 207 -24 232 -43 58 -107 83 -168 64z"/>
<path d="M1616 5110 c-41 -13 -84 -58 -96 -99 -5 -20 -10 -118 -10 -218 l0
-183 151 0 150 0 -3 204 c-3 188 -5 207 -24 232 -43 58 -107 83 -168 64z"/>
<path d="M2216 5110 c-41 -13 -84 -58 -96 -99 -5 -20 -10 -118 -10 -218 l0
-183 151 0 150 0 -3 204 c-3 188 -5 207 -24 232 -43 58 -107 83 -168 64z"/>
<path d="M2793 5099 c-30 -15 -48 -33 -62 -63 -19 -38 -21 -61 -21 -234 l0
-192 150 0 150 0 0 192 c0 173 -2 196 -21 234 -15 31 -32 48 -63 63 -53 26
-80 26 -133 0z"/>
<path d="M3393 5099 c-30 -15 -48 -33 -62 -63 -19 -38 -21 -61 -21 -234 l0
-192 150 0 150 0 0 192 c0 173 -2 196 -21 234 -15 31 -32 48 -63 63 -53 26
-80 26 -133 0z"/>
<path d="M3993 5099 c-30 -15 -48 -33 -62 -63 -19 -38 -21 -61 -21 -234 l0
-192 150 0 150 0 0 192 c0 173 -2 196 -21 234 -15 31 -32 48 -63 63 -53 26
-80 26 -133 0z"/>
<path d="M106 4200 c-102 -31 -135 -169 -58 -243 43 -41 79 -47 279 -47 l183
0 0 150 0 150 -187 -1 c-104 0 -201 -5 -217 -9z"/>
<path d="M4610 4060 l0 -150 192 0 c173 0 196 2 234 21 45 21 84 81 84 129 0
48 -39 108 -84 129 -38 19 -61 21 -234 21 l-192 0 0 -150z"/>
<path d="M1205 3996 c-41 -18 -83 -69 -90 -109 -3 -18 -4 -627 -3 -1354 3
-1317 3 -1322 24 -1349 11 -15 33 -37 48 -48 27 -21 32 -21 1374 -24 1330 -2
1347 -2 1380 18 18 11 41 34 52 52 20 33 20 54 20 1378 0 1324 0 1345 -20
1378 -11 18 -34 41 -52 52 -33 20 -53 20 -1368 20 -1087 -1 -1341 -3 -1365
-14z m1184 -704 c19 -9 47 -33 61 -52 41 -53 480 -1227 480 -1282 0 -111 -114
-180 -216 -132 -46 22 -65 51 -109 172 l-38 102 -258 0 -257 0 -27 -72 c-51
-137 -71 -172 -116 -197 -57 -32 -127 -26 -171 15 -33 31 -58 81 -58 115 0 20
446 1203 474 1258 42 80 154 115 235 73z m980 -9 c14 -11 35 -35 46 -54 19
-33 20 -55 23 -647 2 -429 -1 -625 -9 -654 -33 -125 -182 -156 -263 -55 l-31
39 -3 601 c-2 331 0 626 3 655 11 90 78 146 164 138 24 -2 55 -13 70 -23z"/>
<path d="M2238 2592 l-66 -177 69 -3 c38 -2 100 -2 137 0 l69 3 -66 177 c-36
98 -68 178 -71 178 -3 0 -35 -80 -72 -178z"/>
<path d="M106 3600 c-102 -31 -135 -169 -58 -243 43 -41 79 -47 279 -47 l183
0 0 150 0 150 -187 -1 c-104 0 -201 -5 -217 -9z"/>
<path d="M4610 3460 l0 -150 192 0 c173 0 196 2 234 21 45 21 84 81 84 129 0
48 -39 108 -84 129 -38 19 -61 21 -234 21 l-192 0 0 -150z"/>
<path d="M106 3000 c-102 -31 -135 -169 -58 -243 43 -41 79 -47 279 -47 l183
0 0 150 0 150 -187 -1 c-104 0 -201 -5 -217 -9z"/>
<path d="M4610 2860 l0 -150 192 0 c173 0 196 2 234 21 45 21 84 81 84 129 0
48 -39 108 -84 129 -38 19 -61 21 -234 21 l-192 0 0 -150z"/>
<path d="M106 2400 c-102 -31 -135 -169 -58 -243 43 -41 79 -47 279 -47 l183
0 0 150 0 150 -187 -1 c-104 0 -201 -5 -217 -9z"/>
<path d="M4610 2260 l0 -150 192 0 c173 0 196 2 234 21 45 21 84 81 84 129 0
48 -39 108 -84 129 -38 19 -61 21 -234 21 l-192 0 0 -150z"/>
<path d="M106 1800 c-102 -31 -135 -169 -58 -243 43 -41 79 -47 279 -47 l183
0 0 150 0 150 -187 -1 c-104 0 -201 -5 -217 -9z"/>
<path d="M4610 1660 l0 -150 192 0 c173 0 196 2 234 21 45 21 84 81 84 129 0
48 -39 108 -84 129 -38 19 -61 21 -234 21 l-192 0 0 -150z"/>
<path d="M106 1200 c-102 -31 -135 -169 -58 -243 43 -41 79 -47 279 -47 l183
0 0 150 0 150 -187 -1 c-104 0 -201 -5 -217 -9z"/>
<path d="M4610 1060 l0 -150 192 0 c173 0 196 2 234 21 45 21 84 81 84 129 0
48 -39 108 -84 129 -38 19 -61 21 -234 21 l-192 0 0 -150z"/>
<path d="M912 306 c3 -224 5 -230 71 -280 37 -27 117 -27 154 0 66 50 68 56
71 280 l3 204 -151 0 -151 0 3 -204z"/>
<path d="M1512 306 c3 -224 5 -230 71 -280 37 -27 117 -27 154 0 66 50 68 56
71 280 l3 204 -151 0 -151 0 3 -204z"/>
<path d="M2112 306 c3 -224 5 -230 71 -280 37 -27 117 -27 154 0 66 50 68 56
71 280 l3 204 -151 0 -151 0 3 -204z"/>
<path d="M2710 318 c0 -173 2 -196 21 -234 21 -45 81 -84 129 -84 48 0 108 39
129 84 19 38 21 61 21 234 l0 192 -150 0 -150 0 0 -192z"/>
<path d="M3310 318 c0 -173 2 -196 21 -234 21 -45 81 -84 129 -84 48 0 108 39
129 84 19 38 21 61 21 234 l0 192 -150 0 -150 0 0 -192z"/>
<path d="M3910 318 c0 -173 2 -196 21 -234 21 -45 81 -84 129 -84 48 0 108 39
129 84 19 38 21 61 21 234 l0 192 -150 0 -150 0 0 -192z"/>
</g>
</svg>
