<svg t="1677144016968" class="icon" viewBox="0 0 1024 1024" version="1.1" xmlns="http://www.w3.org/2000/svg" p-id="47415" width="20" height="20"><path d="M158.8096 454.1504l214.0864 0c-12.768-17.9904-18.5664-33.4144-17.4272-46.3104 0.1664-1.8048 0.4608-3.5776 0.8896-5.2736 3.712-14.6304 15.9616-21.5424 36.7616-20.7296 12.6272 0 28.9728-0.4096 49.024-1.2288 20.0512-0.7936 36.7616-1.2032 50.1312-1.2032 14.848-0.8256 23.9488-5.9072 27.3024-15.2512 1.536-4.3328 2.7328-9.4016 3.5648-15.2192L158.8096 348.9344c-17.0112 0-30.8096 15.104-30.8096 33.7536l0 37.7088C128 439.0272 141.7984 454.1504 158.8096 454.1504L158.8096 454.1504zM158.8096 233.2288l365.6384-0.0128c-0.096-11.3472-0.2304-22.7904-0.416-34.336-0.224-14.2272-0.3776-28.2688-0.4672-42.1696-0.0512-8.3712-0.0896-16.6848-0.0896-24.9216L523.4752 128 158.8096 128C141.7984 128 128 143.1104 128 161.76l0 37.696C128 218.0992 141.7984 233.2288 158.8096 233.2288L158.8096 233.2288zM158.8096 895.9936l706.3872 0c17.0048 0 30.8032-15.104 30.8032-33.7536l0-37.7088c0-18.6432-13.792-33.76-30.8032-33.76L158.8096 790.7712c-17.0112 0-30.8096 15.1168-30.8096 33.76l0 37.7088C128 880.8896 141.7984 895.9936 158.8096 895.9936L158.8096 895.9936zM158.8096 675.0656l365.7024 0-10.9632-16.1152c-9.9072-14.5856-19.9616-29.504-30.1696-44.7808l-29.856-44.3328L158.8096 569.8368C141.7984 569.8432 128 584.96 128 603.6096l0 37.7024C128 659.9488 141.7984 675.0656 158.8096 675.0656L158.8096 675.0656zM503.1616 468.3648c-2.6944 10.6112 1.8752 23.8784 13.7152 39.808 10.7584 14.7328 22.9952 32.1344 36.7104 52.1664 13.7152 20.0512 27.5712 40.5376 41.5488 61.4656 13.9904 20.9344 27.5712 40.9792 40.7424 60.1344 13.184 19.1616 24.8832 35.5264 35.0912 49.0816 10.2272 12.9728 19.776 19.168 28.6464 18.5728 8.8832-0.5888 18.1568-7.6608 27.84-21.2224 10.7648-14.7392 22.9952-32.2752 36.7104-52.6272 13.7216-20.3392 27.84-41.2608 42.3552-62.7904 14.5344-21.5232 28.512-42.2976 41.9648-62.3488 13.4464-20.0448 25.2736-37.1456 35.5008-51.3024 9.6832-13.5488 12.5056-24.6144 8.4672-33.1584-4.032-8.5504-13.312-12.8256-27.84-12.8256-9.1392 0-19.4944-0.3072-31.0656-0.896-11.5648-0.576-21.3824-0.8832-29.4528-0.8832-11.296 0.5888-18.5472-4.2688-21.7856-14.5856-3.2256-10.3168-4.832-24.32-4.832-42.0096l0-41.5616c0-15.3344-0.1408-74.0544-0.4096-89.3888-0.2624-15.3344-0.4032-29.7728-0.4032-43.3344L776.6656 186.176c0-20.0448-3.0912-34.6368-9.2736-43.776-6.1952-9.1328-18.1568-13.7088-35.904-13.7088-12.9152 0-24.0704 0.1472-33.4848 0.4416-9.4144 0.3008-19.7696 0.4352-31.0656 0.4352-9.6832 0-17.344 1.7728-22.9952 5.312-5.6448 3.5392-9.9584 7.9552-12.9152 13.2672-2.9568 5.2992-4.8384 11.2-5.6448 17.6896-0.8064 6.4832-1.2032 12.672-1.2032 18.56l0 44.2304c0 15.9104 0.1344 32.128 0.4032 48.6336 0.2688 16.512 0.4032 76.128 0.4032 92.0384l0 43.3408c0 11.7888-1.2096 21.0688-3.6224 27.8592-2.4256 6.784-9.0112 10.464-19.776 11.0528-9.6768 0-21.7728 0.3072-36.3072 0.8832-14.5216 0.5888-26.3552 0.896-35.5008 0.896C514.7264 452.736 505.8496 457.7536 503.1616 468.3648L503.1616 468.3648zM503.1616 468.3648" fill="#222222" p-id="47416"></path></svg>