<svg width="18" height="18" viewBox="0 0 24 24" fill="none" xmlns="http://www.w3.org/2000/svg" color="#0098FD" class="sc-aXZVg hnjZQC"><path d="M11.7674 2.63388C11.8507 2.42284 12.1493 2.42284 12.2326 2.63388L12.912 2.36591L12.2326 2.63388L14.5371 8.47702C14.7149 8.92804 15.072 9.28505 15.523 9.46293L21.3661 11.7674C21.5771 11.8507 21.5771 12.1493 21.3661 12.2326L15.523 14.5371C15.072 14.7149 14.7149 15.072 14.5371 15.523L12.2326 21.3661C12.1493 21.5771 11.8507 21.5771 11.7674 21.3661L9.46293 15.523C9.28505 15.072 8.92804 14.7149 8.47702 14.5371L2.63388 12.2326L2.36522 12.9137L2.63388 12.2326C2.42284 12.1493 2.42284 11.8507 2.63388 11.7674L2.36591 11.088L2.63388 11.7674L8.47702 9.46293C8.92804 9.28505 9.28505 8.92804 9.46293 8.47702L11.7674 2.63388L11.0862 2.36522L11.7674 2.63388Z" stroke="currentColor"></path></svg>