<svg width="40" height="40" viewBox="0 0 40 40" fill="none" xmlns="http://www.w3.org/2000/svg"><circle cx="20" cy="20" r="20" fill="#0098FD"></circle><path d="M8 17.6C8 14.2397 8 12.5595 8.65396 11.2761C9.2292 10.1471 10.1471 9.2292 11.2761 8.65396C12.5595 8 14.2397 8 17.6 8H22.4C25.7603 8 27.4405 8 28.7239 8.65396C29.8529 9.2292 30.7708 10.1471 31.346 11.2761C32 12.5595 32 14.2397 32 17.6V21.0236C32 22.4911 32 23.2249 31.8342 23.9154C31.6872 24.5276 31.4448 25.1129 31.1158 25.6497C30.7448 26.2552 30.2259 26.7741 29.1882 27.8118L27.8118 29.1882C26.7741 30.2259 26.2552 30.7448 25.6497 31.1158C25.1129 31.4448 24.5276 31.6872 23.9154 31.8342C23.2249 32 22.4911 32 21.0236 32H17.6C14.2397 32 12.5595 32 11.2761 31.346C10.1471 30.7708 9.2292 29.8529 8.65396 28.7239C8 27.4405 8 25.7603 8 22.4V17.6Z" fill="#60B3FF"></path><path d="M8 17.6C8 14.2397 8 12.5595 8.65396 11.2761C9.2292 10.1471 10.1471 9.2292 11.2761 8.65396C12.5595 8 14.2397 8 17.6 8H22.4C25.7603 8 27.4405 8 28.7239 8.65396C29.8529 9.2292 30.7708 10.1471 31.346 11.2761C32 12.5595 32 14.2397 32 17.6V21.0236C32 22.4911 32 23.2249 31.8342 23.9154C31.6872 24.5276 31.4448 25.1129 31.1158 25.6497C30.7448 26.2552 30.2259 26.7741 29.1882 27.8118L27.8118 29.1882C26.7741 30.2259 26.2552 30.7448 25.6497 31.1158C25.1129 31.4448 24.5276 31.6872 23.9154 31.8342C23.2249 32 22.4911 32 21.0236 32H17.6C14.2397 32 12.5595 32 11.2761 31.346C10.1471 30.7708 9.2292 29.8529 8.65396 28.7239C8 27.4405 8 25.7603 8 22.4V17.6Z" fill="url(#paint0_linear)" fill-opacity="0.2"></path><path d="M28.5858 22H23C22.4477 22 22 22.4477 22 23V28.5858C22 29.4767 23.0771 29.9229 23.7071 29.2929L29.2929 23.7071C29.9229 23.0771 29.4767 22 28.5858 22Z" fill="white"></path><defs><linearGradient id="paint0_linear" x1="20" y1="8" x2="20" y2="32" gradientUnits="userSpaceOnUse"><stop stop-color="white"></stop><stop offset="1" stop-color="white" stop-opacity="0"></stop></linearGradient></defs></svg>