<svg xmlns="http://www.w3.org/2000/svg" width="24" height="24" fill="none" viewBox="0 0 24 24" id="facebook-watch"><path fill="#5E94FF" d="M4 2.75C2.48122 2.75 1.25 3.98122 1.25 5.5V16.5C1.25 18.0188 2.48122 19.25 4 19.25H20C21.5188 19.25 22.75 18.0188 22.75 16.5V5.5C22.75 3.98122 21.5188 2.75 20 2.75H4Z"></path><path fill="#ECEFF1" d="M10.4301 6.88558C10.201 6.72521 9.90169 6.70562 9.65364 6.83477C9.40559 6.96392 9.25 7.22035 9.25 7.5V14.5C9.25 14.7797 9.40559 15.0361 9.65364 15.1652C9.90169 15.2944 10.201 15.2748 10.4301 15.1144L15.4301 11.6144C15.6306 11.4741 15.75 11.2447 15.75 11C15.75 10.7553 15.6306 10.5259 15.4301 10.3856L10.4301 6.88558Z"></path><path fill="#5E94FF" fill-rule="evenodd" d="M5.25 21C5.25 20.5858 5.58579 20.25 6 20.25H18C18.4142 20.25 18.75 20.5858 18.75 21C18.75 21.4142 18.4142 21.75 18 21.75H6C5.58579 21.75 5.25 21.4142 5.25 21Z" clip-rule="evenodd"></path></svg>