<svg width="40" height="40" viewBox="0 0 40 40" fill="none" xmlns="http://www.w3.org/2000/svg"><circle class="background" opacity="0" cx="20" cy="20" r="20" fill="#9094A5"></circle><g filter="url(#c)"><path class="main" d="M7.368 20c0 6.976 5.656 12.632 12.632 12.632S32.632 26.976 32.632 20 26.976 7.368 20 7.368 7.368 13.024 7.368 20Z" fill="#C5C7D0"></path><path d="M7.368 20c0 6.976 5.656 12.632 12.632 12.632S32.632 26.976 32.632 20 26.976 7.368 20 7.368 7.368 13.024 7.368 20Z" fill="url(#d)" fill-opacity="0.2"></path></g><g filter="url(#e)"><path d="M20 10.526v18.948a9.474 9.474 0 1 1 0-18.948Z" fill="#fff"></path></g><defs><filter id="c" x="7.368" y="7.368" width="25.263" height="25.263" filterUnits="userSpaceOnUse" color-interpolation-filters="sRGB"><feFlood flood-opacity="0" result="BackgroundImageFix"></feFlood><feBlend in="SourceGraphic" in2="BackgroundImageFix" result="shape"></feBlend><feColorMatrix in="SourceAlpha" values="0 0 0 0 0 0 0 0 0 0 0 0 0 0 0 0 0 0 127 0" result="hardAlpha"></feColorMatrix><feOffset dy="0.5"></feOffset><feComposite in2="hardAlpha" operator="arithmetic" k2="-1" k3="1"></feComposite><feColorMatrix values="0 0 0 0 1 0 0 0 0 1 0 0 0 0 1 0 0 0 0.1 0"></feColorMatrix><feBlend in2="shape" result="effect1_innerShadow_603_17246"></feBlend></filter><filter id="e" x="8.526" y="10.526" width="13.474" height="22.947" filterUnits="userSpaceOnUse" color-interpolation-filters="sRGB"><feFlood flood-opacity="0" result="BackgroundImageFix"></feFlood><feColorMatrix in="SourceAlpha" values="0 0 0 0 0 0 0 0 0 0 0 0 0 0 0 0 0 0 127 0" result="hardAlpha"></feColorMatrix><feOffset dy="2"></feOffset><feGaussianBlur stdDeviation="1"></feGaussianBlur><feColorMatrix values="0 0 0 0 0 0 0 0 0 0 0 0 0 0 0 0 0 0 0.05 0"></feColorMatrix><feBlend mode="multiply" in2="BackgroundImageFix" result="effect1_dropShadow_603_17246"></feBlend><feBlend in="SourceGraphic" in2="effect1_dropShadow_603_17246" result="shape"></feBlend></filter><linearGradient id="d" x1="20" y1="7.368" x2="20" y2="32.632" gradientUnits="userSpaceOnUse"><stop stop-color="#fff"></stop><stop offset="1" stop-color="#fff" stop-opacity="0"></stop></linearGradient></defs></svg>