<?xml version="1.0" standalone="no"?>
<!DOCTYPE svg PUBLIC "-//W3C//DTD SVG 20010904//EN"
 "http://www.w3.org/TR/2001/REC-SVG-20010904/DTD/svg10.dtd">
<svg version="1.0" xmlns="http://www.w3.org/2000/svg"
 width="512.000000pt" height="512.000000pt" viewBox="0 0 512.000000 512.000000"
 preserveAspectRatio="xMidYMid meet">

<g transform="translate(0.000000,512.000000) scale(0.100000,-0.100000)"
fill="#ffffff" stroke="none">
<path d="M4270 5106 c-253 -54 -458 -240 -536 -488 l-18 -58 -521 0 c-573 0
-580 -1 -699 -62 -53 -27 -223 -193 -1232 -1202 -1271 -1272 -1214 -1209
-1249 -1357 -19 -81 -19 -147 0 -228 34 -143 19 -126 794 -902 690 -691 719
-718 791 -753 150 -72 298 -72 447 -2 75 36 94 53 506 464 427 427 427 427
427 469 0 57 -31 92 -88 100 l-43 6 -422 -420 c-477 -474 -469 -468 -602 -468
-64 0 -89 5 -125 24 -67 34 -1432 1398 -1468 1466 -36 68 -38 187 -4 255 16
33 333 356 1189 1212 1141 1139 1169 1167 1222 1182 47 14 129 16 563 16 l508
0 0 -33 c0 -153 163 -428 262 -444 33 -5 42 -1 73 30 54 54 49 86 -29 181 -49
61 -94 156 -103 221 l-6 47 119 -4 c105 -3 125 -7 170 -30 28 -15 70 -48 92
-73 75 -85 72 -52 72 -856 0 -709 0 -719 -21 -776 -20 -54 -52 -88 -472 -510
l-450 -452 6 -43 c8 -57 43 -88 100 -88 l42 0 456 457 c375 377 460 468 483
514 55 114 56 120 56 691 l0 527 58 16 c224 65 417 265 477 494 95 366 -107
736 -469 856 -98 33 -256 42 -356 21z m259 -201 c240 -57 412 -297 387 -540
-13 -128 -65 -234 -160 -323 -47 -45 -159 -112 -186 -112 -6 0 -10 37 -10 98
0 170 -46 286 -154 390 -106 102 -213 142 -378 142 -63 0 -98 4 -98 11 0 34
63 132 125 195 132 133 296 181 474 139z"/>
<path d="M2927 3662 c-136 -136 -149 -151 -154 -191 l-6 -43 329 -329 c321
-321 330 -329 369 -329 37 0 47 7 192 153 143 143 153 155 153 191 0 48 -13
72 -52 92 -54 28 -84 14 -193 -96 l-100 -100 -77 77 -78 78 84 85 c46 47 89
96 96 109 26 50 -12 121 -72 136 -41 10 -85 -17 -173 -105 l-80 -80 -77 77
-78 77 105 107 c113 114 120 130 90 189 -19 37 -43 50 -91 50 -35 0 -48 -10
-187 -148z"/>
<path d="M2347 3082 c-136 -136 -149 -151 -154 -191 l-6 -43 329 -329 c321
-321 330 -329 369 -329 37 0 47 7 192 153 143 143 153 155 153 191 0 48 -13
72 -52 92 -54 28 -84 14 -193 -96 l-100 -100 -77 77 -78 78 84 85 c46 47 89
96 96 109 26 50 -12 121 -72 136 -41 10 -85 -17 -173 -105 l-80 -80 -77 77
-78 77 105 107 c113 114 120 130 90 189 -19 37 -43 50 -91 50 -35 0 -48 -10
-187 -148z"/>
<path d="M1894 2556 c-79 -20 -130 -55 -241 -169 -99 -100 -103 -106 -103
-148 l0 -43 323 -324 c303 -304 326 -324 360 -325 66 -2 118 59 102 121 -3 14
-50 71 -103 125 l-97 100 85 -7 c47 -3 150 -9 230 -12 144 -7 146 -7 173 17
36 31 46 88 22 125 -26 41 -68 51 -235 59 -85 4 -158 9 -162 11 -3 2 2 29 13
59 83 237 -127 472 -367 411z m138 -208 c23 -11 48 -60 48 -93 0 -41 -26 -87
-78 -138 l-48 -47 -84 86 -85 85 58 54 c75 71 127 85 189 53z"/>
<path d="M1118 1852 c-130 -130 -148 -152 -148 -181 0 -18 5 -42 11 -54 16
-31 598 -615 631 -633 89 -47 182 41 137 129 -6 12 -63 75 -127 139 l-117 118
77 77 c41 43 81 88 87 100 43 85 -47 175 -132 132 -12 -6 -57 -45 -99 -87
l-78 -77 -75 75 -75 75 94 95 c100 100 116 131 96 180 -16 38 -51 60 -97 60
-35 0 -47 -10 -185 -148z"/>
<path d="M3170 1403 c-82 -30 -89 -150 -11 -183 37 -15 92 -6 115 18 67 75
-11 199 -104 165z"/>
</g>
</svg>
