<svg width="40" height="40" viewBox="0 0 40 40" fill="none" xmlns="http://www.w3.org/2000/svg"><circle class="background" opacity="0" cx="20" cy="20" r="20" fill="#9094A5"></circle><g filter="url(#filter0_i_605_11522)"><path class="main" d="M8 17.6C8 14.2397 8 12.5595 8.65396 11.2761C9.2292 10.1471 10.1471 9.2292 11.2761 8.65396C12.5595 8 14.2397 8 17.6 8H22.4C25.7603 8 27.4405 8 28.7239 8.65396C29.8529 9.2292 30.7708 10.1471 31.346 11.2761C32 12.5595 32 14.2397 32 17.6V22.4C32 25.7603 32 27.4405 31.346 28.7239C30.7708 29.8529 29.8529 30.7708 28.7239 31.346C27.4405 32 25.7603 32 22.4 32H17.6C14.2397 32 12.5595 32 11.2761 31.346C10.1471 30.7708 9.2292 29.8529 8.65396 28.7239C8 27.4405 8 25.7603 8 22.4V17.6Z" fill="#C5C7D0"></path><path d="M8 17.6C8 14.2397 8 12.5595 8.65396 11.2761C9.2292 10.1471 10.1471 9.2292 11.2761 8.65396C12.5595 8 14.2397 8 17.6 8H22.4C25.7603 8 27.4405 8 28.7239 8.65396C29.8529 9.2292 30.7708 10.1471 31.346 11.2761C32 12.5595 32 14.2397 32 17.6V22.4C32 25.7603 32 27.4405 31.346 28.7239C30.7708 29.8529 29.8529 30.7708 28.7239 31.346C27.4405 32 25.7603 32 22.4 32H17.6C14.2397 32 12.5595 32 11.2761 31.346C10.1471 30.7708 9.2292 29.8529 8.65396 28.7239C8 27.4405 8 25.7603 8 22.4V17.6Z" fill="url(#paint0_linear_605_11522)" fill-opacity="0.2"></path></g><g filter="url(#filter1_d_605_11522)"><path fill-rule="evenodd" clip-rule="evenodd" d="M21.4989 15.4989C21.4989 14.6705 20.8273 13.9989 19.9989 13.9989C19.1705 13.9989 18.4989 14.6705 18.4989 15.4989V18.4989H15.4989C14.6705 18.4989 13.9989 19.1705 13.9989 19.9989C13.9989 20.8273 14.6705 21.4989 15.4989 21.4989H18.4989V24.4989C18.4989 25.3273 19.1705 25.9989 19.9989 25.9989C20.8273 25.9989 21.4989 25.3273 21.4989 24.4989V21.4989H24.4989C25.3273 21.4989 25.9989 20.8273 25.9989 19.9989C25.9989 19.1705 25.3273 18.4989 24.4989 18.4989H21.4989V15.4989Z" fill="white"></path></g><defs><filter id="filter0_i_605_11522" x="8" y="8" width="24" height="24" filterUnits="userSpaceOnUse" color-interpolation-filters="sRGB"><feFlood flood-opacity="0" result="BackgroundImageFix"></feFlood><feBlend mode="normal" in="SourceGraphic" in2="BackgroundImageFix" result="shape"></feBlend><feColorMatrix in="SourceAlpha" type="matrix" values="0 0 0 0 0 0 0 0 0 0 0 0 0 0 0 0 0 0 127 0" result="hardAlpha"></feColorMatrix><feOffset dy="0.5"></feOffset><feComposite in2="hardAlpha" operator="arithmetic" k2="-1" k3="1"></feComposite><feColorMatrix type="matrix" values="0 0 0 0 1 0 0 0 0 1 0 0 0 0 1 0 0 0 0.1 0"></feColorMatrix><feBlend mode="normal" in2="shape" result="effect1_innerShadow_605_11522"></feBlend></filter><filter id="filter1_d_605_11522" x="11.9989" y="12.9989" width="16" height="16" filterUnits="userSpaceOnUse" color-interpolation-filters="sRGB"><feFlood flood-opacity="0" result="BackgroundImageFix"></feFlood><feColorMatrix in="SourceAlpha" type="matrix" values="0 0 0 0 0 0 0 0 0 0 0 0 0 0 0 0 0 0 127 0" result="hardAlpha"></feColorMatrix><feOffset dy="1"></feOffset><feGaussianBlur stdDeviation="1"></feGaussianBlur><feColorMatrix type="matrix" values="0 0 0 0 0 0 0 0 0 0 0 0 0 0 0 0 0 0 0.1 0"></feColorMatrix><feBlend mode="multiply" in2="BackgroundImageFix" result="effect1_dropShadow_605_11522"></feBlend><feBlend mode="normal" in="SourceGraphic" in2="effect1_dropShadow_605_11522" result="shape"></feBlend></filter><linearGradient id="paint0_linear_605_11522" x1="20" y1="8" x2="20" y2="32" gradientUnits="userSpaceOnUse"><stop stop-color="white"></stop><stop offset="1" stop-color="white" stop-opacity="0"></stop></linearGradient></defs></svg>