<svg width="40" height="40" viewBox="0 0 40 40" fill="none" xmlns="http://www.w3.org/2000/svg"><circle opacity="1" cx="20" cy="20" r="20" fill="#0098FD"></circle><g filter="url(#filter0_i_22821_144295)"><path fillRule="evenodd" clipRule="evenodd" d="M8.65396 11.276C8 12.5594 8 14.2396 8 17.5999V22.3999C8 25.7602 8 27.4404 8.65396 28.7239C9.2292 29.8528 10.1471 30.7707 11.2761 31.3459C12.5595 31.9999 14.2397 31.9999 17.6 31.9999H22.4C25.7603 31.9999 27.4405 31.9999 28.7239 31.3459C29.8529 30.7707 30.7708 29.8528 31.346 28.7239C32 27.4404 32 25.7602 32 22.3999V17.5999C32 14.2396 32 12.5594 31.346 11.276C30.7708 10.147 29.8529 9.22911 28.7239 8.65387C27.4405 7.99991 25.7603 7.99991 22.4 7.99991H17.6C14.2397 7.99991 12.5595 7.99991 11.2761 8.65387C10.1471 9.22911 9.2292 10.147 8.65396 11.276Z" fill="#60B3FF"></path><path fillRule="evenodd" clipRule="evenodd" d="M8.65396 11.276C8 12.5594 8 14.2396 8 17.5999V22.3999C8 25.7602 8 27.4404 8.65396 28.7239C9.2292 29.8528 10.1471 30.7707 11.2761 31.3459C12.5595 31.9999 14.2397 31.9999 17.6 31.9999H22.4C25.7603 31.9999 27.4405 31.9999 28.7239 31.3459C29.8529 30.7707 30.7708 29.8528 31.346 28.7239C32 27.4404 32 25.7602 32 22.3999V17.5999C32 14.2396 32 12.5594 31.346 11.276C30.7708 10.147 29.8529 9.22911 28.7239 8.65387C27.4405 7.99991 25.7603 7.99991 22.4 7.99991H17.6C14.2397 7.99991 12.5595 7.99991 11.2761 8.65387C10.1471 9.22911 9.2292 10.147 8.65396 11.276Z" fill="url(#paint0_linear_22821_144295)" fill-opacity="0.2"></path></g><g filter="url(#filter1_d_22821_144295)"><path d="M13.666 16.6667C13.666 15.5621 14.5614 14.6667 15.666 14.6667H22.3327C23.4373 14.6667 24.3327 15.5621 24.3327 16.6667V23.3333C24.3327 24.4379 23.4373 25.3333 22.3327 25.3333H15.666C14.5614 25.3333 13.666 24.4379 13.666 23.3333V16.6667Z" fill="white"></path><path d="M28.3327 22.8393V17.1607C28.3327 16.6461 27.7745 16.3256 27.3301 16.5848L24.3327 19V21L27.3301 23.4151C27.7745 23.6744 28.3327 23.3538 28.3327 22.8393Z" fill="white"></path><path d="M13.666 16.6667C13.666 15.5621 14.5614 14.6667 15.666 14.6667H22.3327C23.4373 14.6667 24.3327 15.5621 24.3327 16.6667V23.3333C24.3327 24.4379 23.4373 25.3333 22.3327 25.3333H15.666C14.5614 25.3333 13.666 24.4379 13.666 23.3333V16.6667Z" stroke="white" stroke-width="0.5"></path><path d="M28.3327 22.8393V17.1607C28.3327 16.6461 27.7745 16.3256 27.3301 16.5848L24.3327 19V21L27.3301 23.4151C27.7745 23.6744 28.3327 23.3538 28.3327 22.8393Z" stroke="white" stroke-width="0.5"></path></g><defs><filter id="filter0_i_22821_144295" x="8" y="7.99991" width="24" height="24" filterUnits="userSpaceOnUse" color-interpolation-filters="sRGB"><feFlood flood-opacity="0" result="BackgroundImageFix"></feFlood><feBlend mode="normal" in="SourceGraphic" in2="BackgroundImageFix" result="shape"></feBlend><feColorMatrix in="SourceAlpha" type="matrix" values="0 0 0 0 0 0 0 0 0 0 0 0 0 0 0 0 0 0 127 0" result="hardAlpha"></feColorMatrix><feOffset dy="0.5"></feOffset><feComposite in2="hardAlpha" operator="arithmetic" k2="-1" k3="1"></feComposite><feColorMatrix type="matrix" values="0 0 0 0 1 0 0 0 0 1 0 0 0 0 1 0 0 0 0.1 0"></feColorMatrix><feBlend mode="normal" in2="shape" result="effect1_innerShadow_22821_144295"></feBlend></filter><filter id="filter1_d_22821_144295" x="11" y="11" width="20" height="20" filterUnits="userSpaceOnUse" color-interpolation-filters="sRGB"><feFlood flood-opacity="0" result="BackgroundImageFix"></feFlood><feColorMatrix in="SourceAlpha" type="matrix" values="0 0 0 0 0 0 0 0 0 0 0 0 0 0 0 0 0 0 127 0" result="hardAlpha"></feColorMatrix><feOffset dy="1"></feOffset><feGaussianBlur stdDeviation="1"></feGaussianBlur><feComposite in2="hardAlpha" operator="out"></feComposite><feColorMatrix type="matrix" values="0 0 0 0 0 0 0 0 0 0 0 0 0 0 0 0 0 0 0.1 0"></feColorMatrix><feBlend mode="normal" in2="BackgroundImageFix" result="effect1_dropShadow_22821_144295"></feBlend><feBlend mode="normal" in="SourceGraphic" in2="effect1_dropShadow_22821_144295" result="shape"></feBlend></filter><linearGradient id="paint0_linear_22821_144295" x1="20" y1="8" x2="20" y2="32" gradientUnits="userSpaceOnUse"><stop stop-color="white"></stop><stop offset="1" stop-color="white" stop-opacity="0"></stop></linearGradient></defs></svg>