<svg width="40" height="40" viewBox="0 0 40 40" fill="none" xmlns="http://www.w3.org/2000/svg"><circle class="background" opacity="0" cx="20" cy="20" r="20" fill="#9094A5"></circle><path class="main" fillRule="evenodd" clipRule="evenodd" d="M18.5595 7.15395C17.4862 7.38594 16.4766 7.97864 14.4574 9.16406L13.5426 9.70116C11.5234 10.8866 10.5138 11.4793 9.77954 12.3085C9.12988 13.0422 8.63912 13.9065 8.33909 14.8455C8 15.9067 8 17.0921 8 19.4629V20.5371C8 22.9079 8 24.0933 8.33909 25.1545C8.63912 26.0935 9.12988 26.9578 9.77954 27.6915C10.5138 28.5207 11.5234 29.1134 13.5426 30.2988L14.4574 30.8359C16.4766 32.0214 17.4862 32.6141 18.5595 32.8461C19.5092 33.0513 20.4908 33.0513 21.4405 32.8461C22.5138 32.6141 23.5234 32.0214 25.5426 30.8359L26.4574 30.2988C28.4766 29.1134 29.4862 28.5207 30.2205 27.6915C30.8701 26.9578 31.3609 26.0935 31.6609 25.1545C32 24.0933 32 22.9079 32 20.5371V19.4629C32 17.0921 32 15.9067 31.6609 14.8455C31.3609 13.9065 30.8701 13.0422 30.2205 12.3085C29.4862 11.4793 28.4766 10.8866 26.4574 9.70116L25.5426 9.16406C23.5234 7.97864 22.5138 7.38594 21.4405 7.15395C20.4908 6.94868 19.5092 6.94868 18.5595 7.15395Z" fill="#C5C7D0"></path><path fillRule="evenodd" clipRule="evenodd" d="M18.5595 7.15395C17.4862 7.38594 16.4766 7.97864 14.4574 9.16406L13.5426 9.70116C11.5234 10.8866 10.5138 11.4793 9.77954 12.3085C9.12988 13.0422 8.63912 13.9065 8.33909 14.8455C8 15.9067 8 17.0921 8 19.4629V20.5371C8 22.9079 8 24.0933 8.33909 25.1545C8.63912 26.0935 9.12988 26.9578 9.77954 27.6915C10.5138 28.5207 11.5234 29.1134 13.5426 30.2988L14.4574 30.8359C16.4766 32.0214 17.4862 32.6141 18.5595 32.8461C19.5092 33.0513 20.4908 33.0513 21.4405 32.8461C22.5138 32.6141 23.5234 32.0214 25.5426 30.8359L26.4574 30.2988C28.4766 29.1134 29.4862 28.5207 30.2205 27.6915C30.8701 26.9578 31.3609 26.0935 31.6609 25.1545C32 24.0933 32 22.9079 32 20.5371V19.4629C32 17.0921 32 15.9067 31.6609 14.8455C31.3609 13.9065 30.8701 13.0422 30.2205 12.3085C29.4862 11.4793 28.4766 10.8866 26.4574 9.70116L25.5426 9.16406C23.5234 7.97864 22.5138 7.38594 21.4405 7.15395C20.4908 6.94868 19.5092 6.94868 18.5595 7.15395Z" fill="url(#paint0_linear)" fill-opacity="0.2"></path><circle cx="20" cy="20" r="5" fill="white"></circle><defs><linearGradient id="paint0_linear" x1="20" y1="7" x2="20" y2="33" gradientUnits="userSpaceOnUse"><stop stop-color="white"></stop><stop offset="1" stop-color="white" stop-opacity="0"></stop></linearGradient></defs></svg>