<svg xmlns="http://www.w3.org/2000/svg" enable-background="new 0 0 100 100" viewBox="0 0 100 100" id="sina-weibo"><g><path fill="#e6162d" d="M73.615,48.447c-1.314-0.399-2.216-0.657-1.533-2.383c5.033-13.409-7.597-15.071-20.803-9.416
				c0,0-2.989,1.301-2.216-1.056c1.456-4.702,1.237-8.63-1.03-10.91c-5.152-5.165-18.871,0.193-30.632,11.954
				C8.603,45.433,3.489,54.771,3.489,62.848c0,15.432,19.799,24.822,39.159,24.822c25.389,0,42.277-14.749,42.277-26.458
				C84.938,54.127,78.974,50.108,73.615,48.447z"></path><path fill="#f1f1f1" d="M42.713,82.131C27.255,83.664,13.91,76.67,12.906,66.532c-1.058-24.473,52.225-29.73,55.956-5.539
				C69.88,71.144,58.158,80.611,42.713,82.131z"></path><path fill="#f93" d="M90.144,20.486c-6.132-6.801-15.174-9.39-23.521-7.613c-1.932,0.412-3.156,2.319-2.744,4.238
				c0.412,1.932,2.306,3.156,4.238,2.744c13.098-2.893,24.605,9.876,20.391,22.594c-1.338,4.509,5.24,6.64,6.801,2.203
				C97.931,36.543,96.283,27.28,90.144,20.486z"></path><path fill="#f93" d="M79.412,42.69c1.623,0.515,3.349-0.361,3.877-1.984c2.94-8.629-5.084-17.528-13.964-15.47
				c-1.662,0.348-2.718,1.997-2.37,3.658c0.361,1.662,1.997,2.718,3.645,2.357c1.984-0.425,4.148,0.193,5.603,1.803
				c1.456,1.623,1.855,3.826,1.224,5.758C76.913,40.423,77.789,42.162,79.412,42.69z"></path><path d="M44.246,53.2c-7.355-1.919-15.664,1.752-18.858,8.231c-3.259,6.608-0.103,13.95,7.317,16.346
				c7.703,2.486,16.772-1.327,19.927-8.45C55.749,62.346,51.859,55.171,44.246,53.2z M38.63,70.075
				c-3.249,5.211-12.149,2.467-8.695-3.852C33.164,61.1,41.972,63.757,38.63,70.075z M43.563,63.763
				c-1.113,2.019-4.608,1.073-3.349-1.34C41.332,60.439,44.749,61.343,43.563,63.763z"></path></g></svg>