<svg viewBox="0 0 24 24" fill="none" xmlns="http://www.w3.org/2000/svg" width="16" height="16" color="#5C5E65" class="sc-aXZVg gNFyBF"><path d="M6 9C7.65685 9 9 7.65685 9 6C9 4.34315 7.65685 3 6 3C4.34315 3 3 4.34315 3 6C3 7.65685 4.34315 9 6 9Z" stroke="currentColor" stroke-linecap="round" stroke-linejoin="round"></path><path d="M6 21C7.65685 21 9 19.6569 9 18C9 16.3431 7.65685 15 6 15C4.34315 15 3 16.3431 3 18C3 19.6569 4.34315 21 6 21Z" stroke="currentColor" stroke-linecap="round" stroke-linejoin="round"></path><path d="M20 4L8.12 15.88" stroke="currentColor" stroke-linecap="round" stroke-linejoin="round"></path><path d="M14.47 14.48L20 20" stroke="currentColor" stroke-linecap="round" stroke-linejoin="round"></path><path d="M8.12 8.12L12 12" stroke="currentColor" stroke-linecap="round" stroke-linejoin="round"></path></svg>