<svg width="40" height="40" viewBox="0 0 40 40" fill="none" xmlns="http://www.w3.org/2000/svg"><circle class="background" opacity="0" cx="20" cy="20" r="20" fill="#9094A5"></circle><path class="main" fill-rule="evenodd" clip-rule="evenodd" d="M8.65396 11.2761C8 12.5595 8 14.2397 8 17.6V22.4C8 25.7603 8 27.4405 8.65396 28.7239C9.2292 29.8529 10.1471 30.7708 11.2761 31.346C12.5595 32 14.2397 32 17.6 32H22.4C25.7603 32 27.4405 32 28.7239 31.346C29.8529 30.7708 30.7708 29.8529 31.346 28.7239C32 27.4405 32 25.7603 32 22.4V17.6C32 14.2397 32 12.5595 31.346 11.2761C30.7708 10.1471 29.8529 9.2292 28.7239 8.65396C27.4405 8 25.7603 8 22.4 8H17.6C14.2397 8 12.5595 8 11.2761 8.65396C10.1471 9.2292 9.2292 10.1471 8.65396 11.2761ZM14.1875 15.5C14.1875 14.7751 14.7751 14.1875 15.5 14.1875H24.5C25.2249 14.1875 25.8125 14.7751 25.8125 15.5C25.8125 16.2249 25.2249 16.8125 24.5 16.8125H21.3125V24.5C21.3125 25.2249 20.7249 25.8125 20 25.8125C19.2751 25.8125 18.6875 25.2249 18.6875 24.5V16.8125H15.5C14.7751 16.8125 14.1875 16.2249 14.1875 15.5Z" fill="#C5C7D0"></path><path fill-rule="evenodd" clip-rule="evenodd" d="M8.65396 11.2761C8 12.5595 8 14.2397 8 17.6V22.4C8 25.7603 8 27.4405 8.65396 28.7239C9.2292 29.8529 10.1471 30.7708 11.2761 31.346C12.5595 32 14.2397 32 17.6 32H22.4C25.7603 32 27.4405 32 28.7239 31.346C29.8529 30.7708 30.7708 29.8529 31.346 28.7239C32 27.4405 32 25.7603 32 22.4V17.6C32 14.2397 32 12.5595 31.346 11.2761C30.7708 10.1471 29.8529 9.2292 28.7239 8.65396C27.4405 8 25.7603 8 22.4 8H17.6C14.2397 8 12.5595 8 11.2761 8.65396C10.1471 9.2292 9.2292 10.1471 8.65396 11.2761ZM14.1875 15.5C14.1875 14.7751 14.7751 14.1875 15.5 14.1875H24.5C25.2249 14.1875 25.8125 14.7751 25.8125 15.5C25.8125 16.2249 25.2249 16.8125 24.5 16.8125H21.3125V24.5C21.3125 25.2249 20.7249 25.8125 20 25.8125C19.2751 25.8125 18.6875 25.2249 18.6875 24.5V16.8125H15.5C14.7751 16.8125 14.1875 16.2249 14.1875 15.5Z" fill="url(#paint0_linear)" fill-opacity="0.2"></path><path d="M15.5 14.1875C14.7751 14.1875 14.1875 14.7751 14.1875 15.5C14.1875 16.2249 14.7751 16.8125 15.5 16.8125H18.6875V24.5C18.6875 25.2249 19.2751 25.8125 20 25.8125C20.7249 25.8125 21.3125 25.2249 21.3125 24.5V16.8125H24.5C25.2249 16.8125 25.8125 16.2249 25.8125 15.5C25.8125 14.7751 25.2249 14.1875 24.5 14.1875H15.5Z" fill="#C5C7D0"></path><path d="M15.5 14.1875C14.7751 14.1875 14.1875 14.7751 14.1875 15.5C14.1875 16.2249 14.7751 16.8125 15.5 16.8125H18.6875V24.5C18.6875 25.2249 19.2751 25.8125 20 25.8125C20.7249 25.8125 21.3125 25.2249 21.3125 24.5V16.8125H24.5C25.2249 16.8125 25.8125 16.2249 25.8125 15.5C25.8125 14.7751 25.2249 14.1875 24.5 14.1875H15.5Z" fill="url(#paint1_linear)" fill-opacity="0.2"></path><path d="M15.5 14.1875C14.7751 14.1875 14.1875 14.7751 14.1875 15.5C14.1875 16.2249 14.7751 16.8125 15.5 16.8125H18.6875V24.5C18.6875 25.2249 19.2751 25.8125 20 25.8125C20.7249 25.8125 21.3125 25.2249 21.3125 24.5V16.8125H24.5C25.2249 16.8125 25.8125 16.2249 25.8125 15.5C25.8125 14.7751 25.2249 14.1875 24.5 14.1875H15.5Z" fill="white"></path><defs><linearGradient id="paint0_linear" x1="20" y1="8" x2="20" y2="32" gradientUnits="userSpaceOnUse"><stop stop-color="white"></stop><stop offset="1" stop-color="white" stop-opacity="0"></stop></linearGradient><linearGradient id="paint1_linear" x1="20" y1="8" x2="20" y2="32" gradientUnits="userSpaceOnUse"><stop stop-color="white"></stop><stop offset="1" stop-color="white" stop-opacity="0"></stop></linearGradient></defs></svg>