<svg width="16" height="16" viewBox="0 0 24 24" fill="none" xmlns="http://www.w3.org/2000/svg" color="#5C5E65" class="sc-aXZVg gNFyBF"><path d="M21.1056 14.1699L21.084 14.1552L21.0615 14.142L21.0614 14.1419C21.0595 14.1408 21.0488 14.1347 21.0313 14.1078C21.0115 14.0774 20.9868 14.0262 20.9644 13.947C20.9177 13.7821 20.9015 13.5737 20.9015 13.3605V13.3499C20.9015 12.5482 20.9015 11.7173 20.8352 10.8159C20.8354 10.5415 20.8397 10.3108 20.8836 10.1139C20.9244 9.93067 20.9793 9.87111 21.015 9.84616C21.5419 9.52594 21.7107 8.9562 21.7224 8.48984C21.7345 8.00516 21.5919 7.48696 21.3445 7.02189L21.3395 7.0125L21.3342 7.00326L20.8747 6.19554C20.6175 5.71646 20.2437 5.32056 19.8277 5.08224C19.4458 4.86344 18.8315 4.68331 18.2873 5.04177C18.2291 5.0746 18.0348 5.11457 17.5245 4.853C17.2968 4.73627 17.0636 4.58918 16.8257 4.43356C16.7862 4.40774 16.7457 4.38106 16.7046 4.35395C16.5154 4.22936 16.3129 4.09598 16.1385 3.99847L16.1115 3.98339L16.0834 3.97058C16.0685 3.96378 16.0534 3.95692 16.0382 3.94999C15.7299 3.80969 15.3607 3.64173 15.0578 3.42363C14.7146 3.17658 14.6646 3.01487 14.6646 2.95238C14.6646 2.34059 14.2866 1.89338 13.8709 1.63508C13.4545 1.37634 12.9287 1.25 12.3886 1.25H11.526C11.0103 1.25 10.4912 1.38013 10.0771 1.62987C9.67646 1.87148 9.24995 2.31329 9.24995 2.95238C9.24995 2.95233 9.24994 2.95239 9.24992 2.95253C9.24941 2.9567 9.2395 3.0375 9.09423 3.19886C8.95845 3.34967 8.77373 3.49338 8.59603 3.61573C8.28356 3.80743 7.96917 3.98481 7.64105 4.16984L7.6355 4.17297C7.30954 4.35678 6.9698 4.54836 6.62825 4.75823C6.39496 4.89475 6.17018 5.01811 5.95483 5.08202C5.74279 5.14495 5.64551 5.11918 5.59394 5.0898L5.57958 5.08162L5.56487 5.07408C5.05113 4.81072 4.50321 4.9568 4.11851 5.17194C3.71373 5.39831 3.34528 5.76982 3.05944 6.23033L3.0393 6.26278L3.02257 6.2971L2.62991 7.10227C2.38648 7.56422 2.25 8.07051 2.25 8.53061C2.25 8.93932 2.37055 9.5651 2.93693 9.86808C2.95473 9.88063 2.98993 9.92158 3.01116 10.0827C3.02452 10.1841 3.02744 10.3036 3.02458 10.4493C3.02377 10.4905 3.02203 10.5444 3.02014 10.6031C3.01682 10.7064 3.01303 10.8242 3.01303 10.9116V10.9163V10.9211V10.9259V10.9307V10.9355V10.9403V10.945V10.9498V10.9546V10.9594V10.9642V10.969V10.9737V10.9785V10.9833V10.9881V10.9929V10.9977V11.0024V11.0072V11.012V11.0168V11.0216V11.0264V11.0311V11.0359V11.0407V11.0455V11.0503V11.0551V11.0598V11.0646V11.0694V11.0742V11.079V11.0838V11.0885V11.0933V11.0981V11.1029V11.1077V11.1125V11.1172V11.122V11.1268V11.1316V11.1364V11.1412V11.1459V11.1507V11.1555V11.1603V11.1651V11.1699V11.1746V11.1794V11.1842V11.189V11.1938V11.1986V11.2033V11.2081V11.2129V11.2177V11.2225V11.2273V11.232V11.2368V11.2416V11.2464V11.2512V11.256V11.2607V11.2655V11.2703V11.2751V11.2799V11.2847V11.2894V11.2942V11.299V11.3038V11.3086V11.3134V11.3181V11.3229V11.3277V11.3325V11.3373V11.342V11.3468V11.3516V11.3564V11.3612V11.366V11.3707V11.3755V11.3803V11.3851V11.3899V11.3947V11.3994V11.4042V11.409V11.4138V11.4186V11.4234V11.4281V11.4329V11.4377V11.4425V11.4473V11.4521V11.4568V11.4616V11.4664V11.4712V11.476V11.4808V11.4855V11.4903V11.4951V11.4999V11.5047V11.5095V11.5142V11.519V11.5238V11.5286V11.5334V11.5382V11.5429V11.5477V11.5525V11.5573V11.5621V11.5669V11.5716V11.5764V11.5812V11.586V11.5908V11.5956V11.6003V11.6051V11.6099V11.6147V11.6195V11.6243V11.629V11.6338V11.6386V11.6434V11.6482V11.653V11.6577V11.6625V11.6673V11.6721V11.6769V11.6817V11.6864V11.6912V11.696V11.7008V11.7056V11.7104V11.7151V11.7199V11.7247V11.7295V11.7343V11.7391V11.7438V11.7486V11.7534V11.7582V11.763V11.7678V11.7725V11.7773V11.7821V11.7869V11.7917V11.7964V11.8012V11.806V11.8108V11.8156V11.8204V11.8251V11.8299V11.8347V11.8395V11.8443V11.8491V11.8538V11.8586V11.8634V11.8682V11.873V11.8778V11.8825V11.8873V11.8921V11.8969V11.9017V11.9065V11.9112V11.916V11.9208V11.9256V11.9304V11.9352V11.9399V11.9447V11.9495V11.9543V11.9591V11.9639V11.9686V11.9734V11.9782V11.983V11.9878V11.9926V11.9973V12.0021V12.0069V12.0117V12.0165V12.0213V12.026V12.0308V12.0356V12.0404V12.0452V12.05V12.0547V12.0595V12.0643V12.0691V12.0739V12.0787V12.0834V12.0882V12.093V12.0978V12.1026V12.1074V12.1121V12.1169V12.1217V12.1265V12.1313V12.1361V12.1408V12.1456V12.1504V12.1552V12.16V12.1648V12.1695V12.1743V12.1791V12.1839V12.1887V12.1935V12.1982V12.203V12.2078V12.2126V12.2174V12.2222V12.2269V12.2317V12.2365V12.2413V12.2461V12.2509V12.2556V12.2604V12.2652V12.27V12.2748V12.2795V12.2843V12.2891V12.2939V12.2987V12.3035V12.3082V12.313V12.3178V12.3226V12.3274V12.3322V12.3369V12.3417V12.3465V12.3513V12.3561V12.3609V12.3656V12.3704V12.3752V12.38V12.3848V12.3896V12.3943V12.3991V12.4039V12.4087V12.4135V12.4183V12.423V12.4278V12.4326V12.4374V12.4422V12.447V12.4517V12.4565V12.4613V12.4661V12.4709V12.4757V12.4804V12.4852V12.49V12.4948V12.4996V12.5044V12.5091V12.5139V12.5187V12.5235V12.5283V12.5331V12.5378V12.5426V12.5474V12.5522V12.557V12.5618V12.5665V12.5713V12.5761V12.5809V12.5857V12.5905V12.5952V12.6V12.6048V12.6096V12.6144V12.6192V12.6239V12.6287V12.6335V12.6383V12.6431V12.6479V12.6526V12.6574V12.6622V12.667V12.6718V12.6766V12.6813V12.6861V12.6909V12.6957V12.7005V12.7053V12.71V12.7148V12.7196V12.7244V12.7292V12.7339V12.7387V12.7435V12.7483V12.7531V12.7579V12.7626V12.7674V12.7722V12.777V12.7818V12.7866V12.7913V12.7961V12.8009V12.8057V12.8105V12.8153V12.82V12.8248V12.8296V12.8344V12.8392V12.844V12.8487V12.8535V12.8583V12.8631V12.8679V12.8727V12.8774V12.8822V12.887V12.8918V12.8966V12.9014V12.9061V12.9109V12.9157V12.9205V12.9253V12.9301V12.9348V12.9396V12.9444V12.9492V12.954V12.9588V12.9635V12.9683V12.9731V12.9779V12.9827V12.9875V12.9922V12.997V13.0018V13.0066V13.0114V13.0162V13.0209V13.0257V13.0305V13.0353V13.0401V13.0449V13.0496V13.0544V13.0592V13.064V13.0688V13.0736V13.0783V13.0831V13.0879V13.0927V13.0975V13.1023V13.107V13.1118V13.1166V13.1214V13.1262V13.131V13.1357V13.1405V13.1453V13.1501V13.1549V13.1597V13.1644V13.1692V13.174V13.1788V13.1836V13.1884V13.1931V13.1979V13.2027V13.2075V13.2123V13.217V13.2218V13.2266V13.2314V13.2362V13.241V13.2457V13.2505V13.2553V13.2601V13.2649V13.2697V13.2744V13.2792V13.284V13.2888V13.2936V13.2984V13.3031V13.3079V13.3127V13.3175V13.3223V13.3271V13.3318V13.3366V13.3414V13.3462V13.351V13.3558V13.3605C3.01303 13.613 3.00992 13.8001 2.97367 13.9594C2.94692 14.077 2.91196 14.133 2.87682 14.1663C2.36193 14.4802 2.25 15.0756 2.25 15.4694C2.25 15.9336 2.38892 16.4448 2.63645 16.9101L2.64144 16.9195L2.6467 16.9287L3.10621 17.7364C3.3542 18.1989 3.70248 18.5959 4.10289 18.8396C4.48203 19.0704 5.08139 19.2484 5.62501 18.8917L5.62759 18.8913C5.63125 18.8909 5.63714 18.8904 5.6456 18.8905C5.68344 18.8908 5.75147 18.901 5.85598 18.9386C6.05241 19.0094 6.24821 19.1249 6.47111 19.2563C6.50082 19.2739 6.53101 19.2917 6.56175 19.3097C6.91017 19.5237 7.27222 19.7181 7.61219 19.9007L7.62141 19.9056C7.96758 20.0915 8.29138 20.2657 8.59683 20.4528C8.6199 20.4685 8.6426 20.484 8.66496 20.4991C8.85674 20.6294 9.02217 20.7418 9.15825 20.8759C9.31026 21.0258 9.3163 21.0995 9.3163 21.1156C9.3163 21.7284 9.73557 22.1526 10.1246 22.3823C10.5331 22.6234 11.0513 22.75 11.5924 22.75H12.4549C12.9711 22.75 13.4833 22.6198 13.8894 22.3872C14.2601 22.1748 14.731 21.7555 14.731 21.1156C14.731 21.0905 14.7463 20.997 14.9077 20.8315C15.0626 20.6727 15.2776 20.5255 15.488 20.4022L15.495 20.3981L15.5019 20.3939C16.1704 19.9827 16.8086 19.5905 17.4416 19.2661L17.4603 19.2564L17.4785 19.2458C17.7134 19.1082 17.9503 18.9765 18.1737 18.9022C18.2817 18.8663 18.3622 18.8525 18.4176 18.8509C18.4437 18.8501 18.4605 18.8523 18.4698 18.8541C18.4705 18.8543 18.4711 18.8544 18.4717 18.8545C19.0027 19.1692 19.5906 18.9936 19.9604 18.7817C20.3764 18.5434 20.7502 18.1475 21.0074 17.6684L21.4669 16.8607L21.487 16.8254L21.5032 16.7881C21.6795 16.3814 21.7695 15.909 21.7465 15.4724C21.7252 15.0698 21.5924 14.5027 21.1056 14.1699Z" stroke="currentColor" stroke-miterlimit="10"></path><path d="M12 16C14.2091 16 16 14.2091 16 12C16 9.79086 14.2091 8 12 8C9.79086 8 8 9.79086 8 12C8 14.2091 9.79086 16 12 16Z" stroke="currentColor"></path></svg>