<svg t="1677143968293" class="icon" viewBox="0 0 1024 1024" version="1.1" xmlns="http://www.w3.org/2000/svg" p-id="46401" width="20" height="20"><path d="M865.1904 569.8432l-214.0864 0c12.768 17.9904 18.5664 33.4144 17.4272 46.3104-0.1664 1.8048-0.4608 3.5776-0.8896 5.2736-3.712 14.6304-15.9616 21.5424-36.7616 20.7296-12.6272 0-28.9728 0.4096-49.024 1.2288-20.0512 0.7936-36.7616 1.2032-50.1312 1.2032-14.848 0.8256-23.9488 5.9072-27.3024 15.2512-1.536 4.3328-2.7328 9.4016-3.5648 15.2192l364.3328 0c17.0112 0 30.8096-15.104 30.8096-33.7536l0-37.7088C896 584.9664 882.2016 569.8432 865.1904 569.8432L865.1904 569.8432zM865.1904 790.7648l-365.6384 0.0128c0.096 11.3472 0.2368 22.7904 0.416 34.336 0.2304 14.2272 0.3776 28.2688 0.4672 42.1696 0.0512 8.3712 0.0896 16.6848 0.0896 24.9216l0 3.7952 364.6656 0c17.0112 0 30.8096-15.1104 30.8096-33.76l0-37.696C896 805.8944 882.2016 790.7648 865.1904 790.7648L865.1904 790.7648zM865.1904 128 158.7968 128C141.792 128 128 143.1104 128 161.76l0 37.7024c0 18.6496 13.792 33.76 30.7968 33.76l706.3936 0c17.0112 0 30.8096-15.1168 30.8096-33.76l0-37.7024C896 143.1104 882.2016 128 865.1904 128L865.1904 128zM865.1904 348.928 499.488 348.928l10.9632 16.1152c9.9072 14.5856 19.9616 29.504 30.1696 44.7808l29.856 44.3328 294.7072 0c17.0112 0 30.8096-15.1232 30.8096-33.7664l0-37.7024C896 364.0448 882.2016 348.928 865.1904 348.928L865.1904 348.928zM520.8384 555.6288c2.6944-10.6112-1.8752-23.8784-13.7152-39.808-10.7584-14.7328-22.9952-32.128-36.7104-52.1728-13.7152-20.0512-27.5712-40.5312-41.5552-61.4656-13.9904-20.928-27.5648-40.9792-40.7424-60.1344-13.1776-19.1616-24.8768-35.5264-35.0912-49.0816-10.2208-12.9728-19.776-19.168-28.6464-18.5728-8.8768 0.5888-18.1504 7.6608-27.84 21.2224-10.7648 14.7392-22.9952 32.2752-36.7104 52.6208-13.7152 20.3392-27.8336 41.2672-42.3552 62.7968-14.528 21.5168-28.512 42.2976-41.9584 62.3424-13.4464 20.0448-25.28 37.1456-35.5008 51.3024-9.6832 13.5488-12.5056 24.6144-8.4736 33.1584 4.032 8.5504 13.3184 12.8256 27.84 12.8256 9.1392 0 19.4944 0.3072 31.0656 0.896 11.5648 0.576 21.3824 0.8832 29.4528 0.8832 11.296-0.5888 18.5536 4.2688 21.7856 14.5856 3.2256 10.3168 4.832 24.32 4.832 42.0096l0 41.5616c0 15.3344 0.1408 74.0544 0.4096 89.3888s0.4032 29.7728 0.4032 43.3344l0 34.5024c0 20.0448 3.0912 34.6368 9.28 43.776 6.1888 9.1328 18.1504 13.7088 35.904 13.7088 12.9088 0 24.0704-0.1472 33.4848-0.4416 9.4144-0.3008 19.7696-0.4352 31.0656-0.4352 9.6832 0 17.344-1.7728 22.9952-5.312 5.6448-3.5392 9.952-7.9552 12.9088-13.2672 2.9568-5.2992 4.8384-11.2 5.6448-17.6896 0.8064-6.4832 1.2096-12.672 1.2096-18.56l0-44.2304c0-15.9104-0.1344-32.128-0.4032-48.6336-0.2688-16.512-0.4032-76.128-0.4032-92.0384l0-43.3408c0-11.7888 1.2096-21.0688 3.6224-27.8592 2.4192-6.784 9.0112-10.464 19.7696-11.0528 9.6768 0 21.7792-0.3072 36.3072-0.8832 14.5216-0.5888 26.3552-0.896 35.5008-0.896C509.2736 571.2576 518.1504 566.24 520.8384 555.6288L520.8384 555.6288zM520.8384 555.6288" fill="#222222" p-id="46402"></path></svg>